# xmcd
#
# Track frame offsets: 
#        150
#        7714
#        31537
#        38952
#        59337
#        80889
#        98756
#        118267
#        137095
#        155878
#        176281
#        183699
#        195969
#        207107
#        218503
#        226938
#        236049
#        256298
#        265799
#        283245
#        293150
#        306524
#        316293
#        324627
#        333341
#        347457
#
# Disc length: 4734 seconds
#
# Revision: 0
# Processed by: cddbd v1.5.1PL0 Copyright (c) Steve Scherf et al.
# Submitted via: ExactAudioCopy v0.95a4
#
DISCID=76127c1a
DTITLE=Janis Joplin - Early Performances
DYEAR=1975
DGENRE=Rock
TTITLE0=Mercedes Benz
TTITLE1=Ball And Chain
TTITLE2=Rap On "Try"
TTITLE3=Try (Just A Little Bit Harder)
TTITLE4=Summertime
TTITLE5=Cry Baby 
TTITLE6=Move Over
TTITLE7=4:09 Piece Of My Heart
TTITLE8=Maybe
TTITLE9=Me And Bobby McGee 
TTITLE10=Trouble In Mind
TTITLE11=What Good Can Drinkin' Do 
TTITLE12=Silver Threads And Golden Needles
TTITLE13=Mississippi River
TTITLE14=Stealin' 
TTITLE15=No Reason For Livin' 
TTITLE16=Black Mountain Blues
TTITLE17=Walk Right In
TTITLE18=River Jordan
TTITLE19=Mary Jane 
TTITLE20=Daddy, Daddy, Daddy 
TTITLE21=C.C. Rider 
TTITLE22=San Francisco Bay Blues
TTITLE23=Winin' Boy
TTITLE24=Careless Love
TTITLE25=I'll Drown In My Own Tears 
EXTD=
EXTT0=
EXTT1=
EXTT2=
EXTT3=
EXTT4=
EXTT5=
EXTT6=
EXTT7=
EXTT8=
EXTT9=
EXTT10=
EXTT11=
EXTT12=
EXTT13=
EXTT14=
EXTT15=
EXTT16=
EXTT17=
EXTT18=
EXTT19=
EXTT20=
EXTT21=
EXTT22=
EXTT23=
EXTT24=
EXTT25=
PLAYORDER=
